# Blender 4.5.3 LTS
# www.blender.org
mtllib damaged-rock-gltf-triangulatedd.mtl
o Object_2
v -0.519096 0.519096 -0.519096
v -0.519096 0.519096 0.519096
v 0.519096 0.519096 0.519096
v 0.519096 0.519096 -0.519096
v 0.519096 0.519096 -0.519096
v 0.519096 0.519096 0.519096
v 0.519096 -0.519096 0.519096
v 0.519096 -0.519096 -0.519096
v 0.519096 -0.519096 -0.519096
v 0.519096 -0.519096 0.519096
v -0.519096 -0.519096 0.519096
v -0.519096 -0.519096 -0.519096
v -0.519096 -0.519096 -0.519096
v -0.519096 -0.519096 0.519096
v -0.519096 0.519096 0.519096
v -0.519096 0.519096 -0.519096
v 0.519096 0.519096 -0.519096
v 0.519096 -0.519096 -0.519096
v -0.519096 -0.519096 -0.519096
v -0.519096 0.519096 -0.519096
v 0.519096 -0.519096 0.519096
v 0.519096 0.519096 0.519096
v -0.519096 0.519096 0.519096
v -0.519096 -0.519096 0.519096
vn -0.0000 1.0000 -0.0000
vn 1.0000 -0.0000 -0.0000
vn -0.0000 -1.0000 -0.0000
vn -1.0000 -0.0000 -0.0000
vn -0.0000 -0.0000 -1.0000
vn -0.0000 -0.0000 1.0000
vt 0.375000 1.000000
vt 0.625000 1.000000
vt 0.625000 0.750000
vt 0.375000 0.750000
vt 0.625000 0.500000
vt 0.375000 0.500000
vt 0.625000 0.250000
vt 0.375000 0.250000
vt 0.625000 0.000000
vt 0.375000 0.000000
vt 0.125000 0.500000
vt 0.125000 0.250000
vt 0.875000 0.500000
vt 0.875000 0.250000
s 0
usemtl material_0
f 1/1/1 2/2/1 3/3/1
f 1/1/1 3/3/1 4/4/1
f 5/4/2 6/3/2 7/5/2
f 5/4/2 7/5/2 8/6/2
f 9/6/3 10/5/3 11/7/3
f 9/6/3 11/7/3 12/8/3
f 13/8/4 14/7/4 15/9/4
f 13/8/4 15/9/4 16/10/4
f 17/11/5 18/6/5 19/8/5
f 17/11/5 19/8/5 20/12/5
f 21/5/6 22/13/6 23/14/6
f 21/5/6 23/14/6 24/7/6
